# xmcd CD database file
#
# Track frame offsets:
#	150
#	42738
#	59360
#	78003
#	104010
#	114337
#	138792
#	166801
#	180691
#	202919
#	225434
#	244137
#	273289
#
# Disc length: 3934 seconds
#
# Revision: 1
# Processed by: cddbd v1.5.1PL0 Copyright (c) Steve Scherf et al.
# Submitted via: CDex 1.51
#
DISCID=a60f5c0d
DTITLE=Csus Jazz Singers - On The Outside
DYEAR=2004
DGENRE=Jazz
TTITLE0=Minuano
TTITLE1=So Cool
TTITLE2=I Remember You
TTITLE3=April In Paris
TTITLE4=Episode: Prelude
TTITLE5=Always
TTITLE6=Don't Be On The Outside
TTITLE7=Detour Ahead
TTITLE8=Virtual Insanity
TTITLE9=Love Letters
TTITLE10=Don't You Worry 'Bout A Thing
TTITLE11=Impressions
TTITLE12=Over Oceans
EXTD=YEAR: 2004
EXTT0=
EXTT1=
EXTT2=
EXTT3=
EXTT4=
EXTT5=
EXTT6=
EXTT7=
EXTT8=
EXTT9=
EXTT10=
EXTT11=
EXTT12=
PLAYORDER=
